<svg width="26" height="26" viewBox="0 0 26 26" fill="none" xmlns="http://www.w3.org/2000/svg">
<path d="M5.71 0.471991C6.07084 0.167426 6.52781 0.000356436 7 0.000356436C7.47219 0.000356436 7.92916 0.167426 8.29 0.471991L12.936 4.39699L13 4.45299L13.064 4.39699L17.709 0.471991C18.07 0.1669 18.5274 -0.000488281 19 -0.000488281C19.4726 -0.000488281 19.93 0.1669 20.291 0.471991L24.936 4.39699C25.2695 4.67875 25.5375 5.02991 25.7213 5.42595C25.9051 5.822 26.0002 6.25338 26 6.68999V23C26 23.7956 25.6839 24.5587 25.1213 25.1213C24.5587 25.6839 23.7956 26 23 26H3C2.20435 26 1.44129 25.6839 0.87868 25.1213C0.316071 24.5587 1.4673e-08 23.7956 1.4673e-08 23V6.68999C-4.31477e-05 6.25355 0.0951398 5.82236 0.278908 5.4265C0.462677 5.03064 0.730605 4.67964 1.064 4.39799L5.71 0.471991ZM12 24V20H9V24H12ZM12 18V6.68899C12 6.54349 11.9682 6.39974 11.9069 6.26778C11.8456 6.13583 11.7562 6.01884 11.645 5.92499L7 1.99999L2.355 5.92499C2.24368 6.01895 2.15423 6.1361 2.09291 6.26824C2.03159 6.40038 1.99988 6.54432 2 6.68999V23C2 23.2652 2.10536 23.5196 2.29289 23.7071C2.48043 23.8946 2.73478 24 3 24H7V19C7 18.7348 7.10536 18.4804 7.29289 18.2929C7.48043 18.1053 7.73478 18 8 18H12ZM14 24H17V20H14V24ZM14 18H18C18.2652 18 18.5196 18.1053 18.7071 18.2929C18.8946 18.4804 19 18.7348 19 19V24H23C23.2652 24 23.5196 23.8946 23.7071 23.7071C23.8946 23.5196 24 23.2652 24 23V6.68899C24 6.54349 23.9682 6.39974 23.9069 6.26778C23.8456 6.13583 23.7562 6.01884 23.645 5.92499L19 1.99999L14.355 5.92499C14.2437 6.01895 14.1542 6.1361 14.0929 6.26824C14.0316 6.40038 13.9999 6.54432 14 6.68999V18ZM8.25 8.99999C8.25 9.33151 8.1183 9.64945 7.88388 9.88387C7.64946 10.1183 7.33152 10.25 7 10.25C6.66848 10.25 6.35054 10.1183 6.11612 9.88387C5.8817 9.64945 5.75 9.33151 5.75 8.99999C5.75 8.66847 5.8817 8.35053 6.11612 8.11611C6.35054 7.88169 6.66848 7.74999 7 7.74999C7.33152 7.74999 7.64946 7.88169 7.88388 8.11611C8.1183 8.35053 8.25 8.66847 8.25 8.99999ZM19 10.25C18.6685 10.25 18.3505 10.1183 18.1161 9.88387C17.8817 9.64945 17.75 9.33151 17.75 8.99999C17.75 8.66847 17.8817 8.35053 18.1161 8.11611C18.3505 7.88169 18.6685 7.74999 19 7.74999C19.3315 7.74999 19.6495 7.88169 19.8839 8.11611C20.1183 8.35053 20.25 8.66847 20.25 8.99999C20.25 9.33151 20.1183 9.64945 19.8839 9.88387C19.6495 10.1183 19.3315 10.25 19 10.25ZM8.25 14C8.25 14.3315 8.1183 14.6495 7.88388 14.8839C7.64946 15.1183 7.33152 15.25 7 15.25C6.66848 15.25 6.35054 15.1183 6.11612 14.8839C5.8817 14.6495 5.75 14.3315 5.75 14C5.75 13.6685 5.8817 13.3505 6.11612 13.1161C6.35054 12.8817 6.66848 12.75 7 12.75C7.33152 12.75 7.64946 12.8817 7.88388 13.1161C8.1183 13.3505 8.25 13.6685 8.25 14ZM19 15.25C18.6685 15.25 18.3505 15.1183 18.1161 14.8839C17.8817 14.6495 17.75 14.3315 17.75 14C17.75 13.6685 17.8817 13.3505 18.1161 13.1161C18.3505 12.8817 18.6685 12.75 19 12.75C19.3315 12.75 19.6495 12.8817 19.8839 13.1161C20.1183 13.3505 20.25 13.6685 20.25 14C20.25 14.3315 20.1183 14.6495 19.8839 14.8839C19.6495 15.1183 19.3315 15.25 19 15.25Z" fill="white"/>
</svg>
