<svg width="18" height="14" viewBox="0 0 18 14" fill="none" xmlns="http://www.w3.org/2000/svg">
<path fill-rule="evenodd" clip-rule="evenodd" d="M10.104 3.49997H0.75C0.551088 3.49997 0.360322 3.42096 0.21967 3.2803C0.0790175 3.13965 0 2.94889 0 2.74997C0 2.55106 0.0790175 2.3603 0.21967 2.21964C0.360322 2.07899 0.551088 1.99997 0.75 1.99997H10.104C10.2674 1.42405 10.6143 0.917164 11.0919 0.556225C11.5695 0.195286 12.1518 0 12.7505 0C13.3492 0 13.9315 0.195286 14.4091 0.556225C14.8867 0.917164 15.2336 1.42405 15.397 1.99997H16.75C16.9489 1.99997 17.1397 2.07899 17.2803 2.21964C17.421 2.3603 17.5 2.55106 17.5 2.74997C17.5 2.94889 17.421 3.13965 17.2803 3.2803C17.1397 3.42096 16.9489 3.49997 16.75 3.49997H15.396C15.2323 4.07549 14.8854 4.58192 14.4079 4.94252C13.9304 5.30311 13.3483 5.49819 12.75 5.49819C12.1517 5.49819 11.5696 5.30311 11.0921 4.94252C10.6146 4.58192 10.2677 4.07549 10.104 3.49997ZM11.5 2.74997C11.5 2.41845 11.6317 2.10051 11.8661 1.86609C12.1005 1.63167 12.4185 1.49997 12.75 1.49997C13.0815 1.49997 13.3995 1.63167 13.6339 1.86609C13.8683 2.10051 14 2.41845 14 2.74997C14 3.0815 13.8683 3.39944 13.6339 3.63386C13.3995 3.86828 13.0815 3.99997 12.75 3.99997C12.4185 3.99997 12.1005 3.86828 11.8661 3.63386C11.6317 3.39944 11.5 3.0815 11.5 2.74997ZM7.397 11.5H16.75C16.9489 11.5 17.1397 11.421 17.2803 11.2803C17.421 11.1397 17.5 10.9489 17.5 10.75C17.5 10.5511 17.421 10.3603 17.2803 10.2196C17.1397 10.079 16.9489 9.99998 16.75 9.99998H7.397C7.23357 9.42405 6.88672 8.91716 6.4091 8.55622C5.93148 8.19529 5.34916 8 4.7505 8C4.15184 8 3.56952 8.19529 3.0919 8.55622C2.61428 8.91716 2.26744 9.42405 2.104 9.99998H0.75C0.551088 9.99998 0.360322 10.079 0.21967 10.2196C0.0790175 10.3603 0 10.5511 0 10.75C0 10.9489 0.0790175 11.1397 0.21967 11.2803C0.360322 11.421 0.551088 11.5 0.75 11.5H2.104C2.26773 12.0755 2.61464 12.5819 3.09213 12.9425C3.56962 13.3031 4.15165 13.4982 4.75 13.4982C5.34835 13.4982 5.93038 13.3031 6.40787 12.9425C6.88536 12.5819 7.23227 12.0755 7.396 11.5M3.5 10.75C3.5 10.4185 3.6317 10.1005 3.86612 9.86609C4.10054 9.63167 4.41848 9.49998 4.75 9.49998C5.08152 9.49998 5.39946 9.63167 5.63388 9.86609C5.8683 10.1005 6 10.4185 6 10.75C6 11.0815 5.8683 11.3994 5.63388 11.6339C5.39946 11.8683 5.08152 12 4.75 12C4.41848 12 4.10054 11.8683 3.86612 11.6339C3.6317 11.3994 3.5 11.0815 3.5 10.75Z" fill="#222222"/>
</svg>
