<svg width="23" height="23" viewBox="0 0 23 23" fill="none" xmlns="http://www.w3.org/2000/svg">
<path d="M23 7.42883C23 15.8162 12.343 22.6052 11.8892 22.8856C11.7695 22.9607 11.6358 23 11.5 23C11.3642 23 11.2305 22.9607 11.1108 22.8856C10.657 22.6052 0 15.8162 0 7.42883C0.00190236 5.45927 0.673223 3.571 1.86668 2.17831C3.06014 0.785612 4.67827 0.00221995 6.36607 0C8.48638 0 10.3428 1.064 11.5 2.8625C12.6572 1.064 14.5136 0 16.6339 0C18.3217 0.00221995 19.9399 0.785612 21.1333 2.17831C22.3268 3.571 22.9981 5.45927 23 7.42883Z" fill="white"/>
</svg>
