<svg width="24" height="24" viewBox="0 0 24 24" fill="none" xmlns="http://www.w3.org/2000/svg">
<path d="M23.9649 8.95686L21.8491 21.001C21.7063 21.8388 21.2578 22.602 20.5822 23.1569C19.8624 23.7025 18.9691 23.9997 18.0485 24H5.87357C4.98335 23.9926 4.12412 23.6883 3.44574 23.1402C2.76736 22.5921 2.31288 21.835 2.16157 21.001L0.0458508 8.95686C-0.0687271 8.26195 0.0325427 7.55035 0.337237 6.90936C0.641829 6.27167 1.13479 5.73188 1.75616 5.35566L9.96565 0.538004C10.5654 0.186271 11.2563 0 11.961 0C12.6657 0 13.3566 0.186271 13.9564 0.538004L22.1532 5.35566C22.7955 5.71699 23.3073 6.25536 23.6228 6.89731C23.9472 7.53696 24.0662 8.25331 23.9649 8.95686Z" fill="white"/>
<ellipse cx="12.0355" cy="11.4419" rx="3.16724" ry="3.01104" fill="#FB9E12"/>
</svg>
