<svg width="20" height="20" viewBox="0 0 20 20" fill="none" xmlns="http://www.w3.org/2000/svg">
<path d="M19 7.00003H17.58L13.868 0.504028L12.132 1.49603L15.277 7.00003H4.72302L7.86902 1.49603L6.13202 0.504028L2.42002 7.00003H1.00002C0.846315 7.0002 0.694715 7.03576 0.55697 7.10396C0.419226 7.17216 0.299037 7.27116 0.20572 7.3933C0.112403 7.51543 0.0484649 7.65741 0.0188624 7.80824C-0.0107401 7.95907 -0.00521182 8.11468 0.0350183 8.26303L2.83402 18.527C2.95037 18.9498 3.20213 19.3228 3.55072 19.5889C3.89931 19.8549 4.3255 19.9993 4.76402 20H15.237C16.135 20 16.929 19.395 17.167 18.525L19.966 8.26203C20.0067 8.11363 20.0126 7.95783 19.9831 7.8068C19.9536 7.65577 19.8896 7.51361 19.7961 7.39141C19.7025 7.26922 19.582 7.17031 19.4439 7.10242C19.3058 7.03452 19.1539 6.99948 19 7.00003ZM15.236 18H4.76402L2.31002 9.00003H17.69L15.236 18Z" fill="#696B6C"/>
</svg>
