<svg width="20" height="14" viewBox="0 0 20 14" fill="none" xmlns="http://www.w3.org/2000/svg">
<path d="M0 0.75C0 0.551088 0.0790175 0.360322 0.21967 0.21967C0.360322 0.0790175 0.551088 0 0.75 0H16.25C16.4489 0 16.6397 0.0790175 16.7803 0.21967C16.921 0.360322 17 0.551088 17 0.75C17 0.948912 16.921 1.13968 16.7803 1.28033C16.6397 1.42098 16.4489 1.5 16.25 1.5H0.75C0.551088 1.5 0.360322 1.42098 0.21967 1.28033C0.0790175 1.13968 0 0.948912 0 0.75ZM0 12.75C0 12.5511 0.0790175 12.3603 0.21967 12.2197C0.360322 12.079 0.551088 12 0.75 12H13.25C13.4489 12 13.6397 12.079 13.7803 12.2197C13.921 12.3603 14 12.5511 14 12.75C14 12.9489 13.921 13.1397 13.7803 13.2803C13.6397 13.421 13.4489 13.5 13.25 13.5H0.75C0.551088 13.5 0.360322 13.421 0.21967 13.2803C0.0790175 13.1397 0 12.9489 0 12.75ZM0.75 6C0.551088 6 0.360322 6.07902 0.21967 6.21967C0.0790175 6.36032 0 6.55109 0 6.75C0 6.94891 0.0790175 7.13968 0.21967 7.28033C0.360322 7.42098 0.551088 7.5 0.75 7.5H19.25C19.4489 7.5 19.6397 7.42098 19.7803 7.28033C19.921 7.13968 20 6.94891 20 6.75C20 6.55109 19.921 6.36032 19.7803 6.21967C19.6397 6.07902 19.4489 6 19.25 6H0.75Z" fill="white"/>
</svg>
