<svg width="20" height="20" viewBox="0 0 20 20" fill="none" xmlns="http://www.w3.org/2000/svg">
<path d="M11.1445 17.7023L10.625 18.5802C10.1622 19.3622 9.00546 19.3622 8.54163 18.5802L8.02221 17.7023C7.61971 17.0219 7.41846 16.6807 7.09454 16.4929C6.77062 16.3041 6.36333 16.2974 5.54875 16.283C4.34508 16.2629 3.59087 16.1891 2.95837 15.9265C2.37702 15.6857 1.84878 15.3328 1.40383 14.8878C0.958882 14.4429 0.605929 13.9146 0.365125 13.3333C2.85606e-08 12.4535 0 11.3371 0 9.10417V8.14583C0 5.00921 0 3.44042 0.706292 2.2885C1.10116 1.64373 1.64301 1.10156 2.28754 0.706292C3.44042 0 5.01017 0 8.14583 0H11.0208C14.1575 0 15.7263 0 16.8791 0.706292C17.5235 1.10128 18.0654 1.64312 18.4604 2.28754C19.1667 3.44042 19.1667 5.01017 19.1667 8.14583V9.10417C19.1667 11.3371 19.1667 12.4535 18.8025 13.3333C18.5616 13.9147 18.2085 14.443 17.7634 14.888C17.3182 15.3329 16.7898 15.6858 16.2083 15.9265C15.5758 16.1891 14.8216 16.262 13.6179 16.283C12.8033 16.2974 12.396 16.3041 12.0721 16.4929C11.7482 16.6807 11.547 17.021 11.1445 17.7023Z" fill="white"/>
<circle cx="4.79165" cy="8.625" r="0.958333" fill="black"/>
<circle cx="9.58333" cy="8.625" r="0.958333" fill="black"/>
<circle cx="14.375" cy="8.625" r="0.958333" fill="black"/>
</svg>
