<svg width="15" height="15" viewBox="0 0 15 15" fill="none" xmlns="http://www.w3.org/2000/svg">
<path fill-rule="evenodd" clip-rule="evenodd" d="M13.21 1.18997C12.786 1.26597 12.207 1.45797 11.363 1.73997L4.873 3.90297C4.05 4.17697 3.453 4.37597 3.018 4.54597C2.566 4.72197 2.368 4.83897 2.285 4.91797C2.13921 5.05796 2.02321 5.22596 1.94397 5.41189C1.86473 5.59783 1.82389 5.79786 1.82389 5.99997C1.82389 6.20209 1.86473 6.40212 1.94397 6.58805C2.02321 6.77399 2.13921 6.94199 2.285 7.08197C2.368 7.16197 2.566 7.27797 3.018 7.45397C3.64401 7.6868 4.27517 7.90552 4.91101 8.10997C5.203 8.20697 5.405 8.27397 5.58801 8.37097C6.03126 8.60578 6.39362 8.9685 6.62801 9.41197C6.72601 9.59497 6.793 9.79697 6.89001 10.089L6.903 10.128C7.177 10.95 7.376 11.548 7.546 11.982C7.722 12.434 7.839 12.632 7.919 12.715C8.05897 12.8606 8.22692 12.9765 8.41276 13.0556C8.5986 13.1348 8.79851 13.1756 9.0005 13.1756C9.2025 13.1756 9.40241 13.1348 9.58825 13.0556C9.77409 12.9765 9.94204 12.8606 10.082 12.715C10.162 12.632 10.278 12.434 10.454 11.982C10.624 11.548 10.824 10.95 11.097 10.128L13.261 3.63697C13.542 2.79297 13.734 2.21297 13.809 1.78997C13.885 1.36197 13.81 1.26497 13.772 1.22797C13.735 1.18997 13.638 1.11397 13.21 1.18997ZM13.035 0.206972C13.545 0.116972 14.08 0.121972 14.48 0.520972C14.879 0.920972 14.884 1.45597 14.794 1.96597C14.704 2.47097 14.488 3.11997 14.224 3.91297L14.209 3.95297L12.046 10.445L12.041 10.46C11.8368 11.0938 11.6184 11.7229 11.386 12.347C11.211 12.793 11.036 13.167 10.803 13.409C10.5697 13.6519 10.2897 13.8451 9.97992 13.9771C9.67009 14.1091 9.33678 14.1772 9 14.1772C8.66323 14.1772 8.32992 14.1091 8.02009 13.9771C7.71026 13.8451 7.4303 13.6519 7.197 13.409C6.965 13.166 6.78901 12.793 6.61401 12.347C6.43401 11.886 6.227 11.264 5.959 10.46L5.95401 10.445C5.83901 10.1 5.79801 9.98197 5.74401 9.88097C5.60344 9.61474 5.38601 9.39696 5.12 9.25597C5.02 9.20297 4.901 9.16197 4.556 9.04597L4.54101 9.04197C3.90734 8.83732 3.27819 8.61893 2.654 8.38697C2.208 8.21197 1.834 8.03697 1.592 7.80397C1.34912 7.57068 1.15588 7.29071 1.02387 6.98088C0.891867 6.67106 0.823822 6.33775 0.823822 6.00097C0.823822 5.6642 0.891867 5.33089 1.02387 5.02106C1.15588 4.71123 1.34912 4.43127 1.592 4.19797C1.835 3.96497 2.208 3.78997 2.654 3.61497C3.115 3.43497 3.73701 3.22797 4.54101 2.95997L4.556 2.95497L11.047 0.791972L11.088 0.777972C11.881 0.513972 12.53 0.297973 13.035 0.207973" fill="white"/>
</svg>
