<svg width="24" height="24" viewBox="0 0 24 24" fill="none" xmlns="http://www.w3.org/2000/svg">
<path d="M23.7367 23.748C23.5616 23.9054 23.336 23.9948 23.1006 24C22.8649 23.997 22.6385 23.9072 22.4646 23.748L17.3367 18.6119C17.041 18.8687 16.7283 19.1052 16.4007 19.3199C14.6644 20.475 12.6262 21.0928 10.5407 21.0959C9.15184 21.0994 7.77618 20.8261 6.49412 20.2919C5.21393 19.7664 4.05367 18.9867 3.08353 17.9999C1.88875 16.8034 0.999183 15.3372 0.489842 13.7249C-0.0195003 12.1126 -0.133683 10.4015 0.156921 8.73582C0.447524 7.07014 1.13439 5.49875 2.15961 4.15416C3.18483 2.80957 4.51834 1.7312 6.04769 1.00997C8.09479 0.0439838 10.3981 -0.238715 12.6181 0.203555C14.1511 0.50618 15.5978 1.14571 16.8535 2.07589C18.1091 3.00607 19.1423 4.20366 19.8784 5.58206C20.614 6.96017 21.0338 8.48468 21.1072 10.0451C21.1807 11.6055 20.9061 13.1627 20.3033 14.6038C19.8923 15.6033 19.3247 16.5309 18.622 17.3519L23.7487 22.488C23.912 22.6578 24.0022 22.8848 24 23.1204C23.9977 23.356 23.9032 23.5813 23.7367 23.748Z" fill="#FDF9F9"/>
</svg>
