<svg width="20" height="18" viewBox="0 0 20 18" fill="none" xmlns="http://www.w3.org/2000/svg">
<path d="M17.5 4H16V3C15.9992 2.20459 15.6829 1.44199 15.1204 0.879557C14.558 0.31712 13.7954 0.000794215 13 0H2.5C1.83712 0.000529668 1.20154 0.264092 0.732818 0.732818C0.264092 1.20154 0.000529668 1.83712 0 2.5V15C0.000794215 15.7954 0.31712 16.558 0.879557 17.1204C1.44199 17.6829 2.20459 17.9992 3 18H17.5C18.1629 17.9995 18.7985 17.7359 19.2672 17.2672C19.7359 16.7985 19.9995 16.1629 20 15.5V6.5C19.9995 5.83712 19.7359 5.20154 19.2672 4.73282C18.7985 4.26409 18.1629 4.00053 17.5 4ZM2.5 1H13C13.5302 1.00079 14.0384 1.21176 14.4133 1.58666C14.7882 1.96156 14.9992 2.46981 15 3V4H2.5C2.30302 4 2.10796 3.9612 1.92597 3.88582C1.74399 3.81044 1.57863 3.69995 1.43934 3.56066C1.30005 3.42137 1.18956 3.25601 1.11418 3.07403C1.0388 2.89204 1 2.69698 1 2.5C1 2.30302 1.0388 2.10796 1.11418 1.92597C1.18956 1.74399 1.30005 1.57863 1.43934 1.43934C1.57863 1.30005 1.74399 1.18956 1.92597 1.11418C2.10796 1.0388 2.30302 1 2.5 1ZM19 13H17C16.4696 13 15.9609 12.7893 15.5858 12.4142C15.2107 12.0391 15 11.5304 15 11C15 10.4696 15.2107 9.96086 15.5858 9.58579C15.9609 9.21071 16.4696 9 17 9H19V13ZM19 8H17C16.606 8 16.2159 8.0776 15.8519 8.22836C15.488 8.37913 15.1573 8.6001 14.8787 8.87868C14.6001 9.15726 14.3791 9.48797 14.2284 9.85195C14.0776 10.2159 14 10.606 14 11C14 11.394 14.0776 11.7841 14.2284 12.1481C14.3791 12.512 14.6001 12.8427 14.8787 13.1213C15.1573 13.3999 15.488 13.6209 15.8519 13.7716C16.2159 13.9224 16.606 14 17 14H19V15.5C19 15.8978 18.842 16.2794 18.5607 16.5607C18.2794 16.842 17.8978 17 17.5 17H3C2.46981 16.9992 1.96156 16.7882 1.58666 16.4133C1.21176 16.0384 1.00079 15.5302 1 15V4.499C1.432 4.825 1.959 5.001 2.5 5H17.5C17.8978 5 18.2794 5.15804 18.5607 5.43934C18.842 5.72064 19 6.10218 19 6.5V8Z" fill="#FC9E12"/>
</svg>
